HIERARCHY
ROOT Hips
{
	OFFSET 0.000000 0.000000 0.000000
	CHANNELS 6 Xposition Yposition Zposition Xrotation Yrotation Zrotation
	JOINT LeftUpLeg_virtual
	{
		OFFSET 0.000000 0.000000 0.000000
		CHANNELS 3 Xrotation Yrotation Zrotation
		JOINT LeftUpLeg
		{
			OFFSET 10.205400 -3.823500 0.155100
			CHANNELS 3 Xrotation Yrotation Zrotation
			JOINT LeftLeg
			{
				OFFSET 0.708757 -12.982077 0.567790
				CHANNELS 3 Xrotation Yrotation Zrotation
				JOINT LeftFoot
				{
					OFFSET -0.708756 -10.717838 -2.184338
					CHANNELS 3 Xrotation Yrotation Zrotation
					JOINT LeftToeBase
					{
						OFFSET 0.108149 -7.191104 7.560241
						CHANNELS 3 Xrotation Yrotation Zrotation
						JOINT LeftToe_End
						{
							OFFSET 0.070230 0.081724 4.490308
							CHANNELS 3 Xrotation Yrotation Zrotation
							End Site
							{
								OFFSET 0 0 0
							}
						}
					}
				}
			}
		}
	}
	JOINT RightUpLeg_virtual
	{
		OFFSET 0.000000 0.000000 0.000000
		CHANNELS 3 Xrotation Yrotation Zrotation
		JOINT RightUpLeg
		{
			OFFSET -10.205400 -3.823500 0.005500
			CHANNELS 3 Xrotation Yrotation Zrotation
			JOINT RightLeg
			{
				OFFSET -0.708756 -12.982134 0.610632
				CHANNELS 3 Xrotation Yrotation Zrotation
				JOINT RightFoot
				{
					OFFSET 0.708754 -10.717769 -1.945823
					CHANNELS 3 Xrotation Yrotation Zrotation
					JOINT RightToeBase
					{
						OFFSET -0.108140 -7.191069 7.372968
						CHANNELS 3 Xrotation Yrotation Zrotation
						JOINT RightToe_End
						{
							OFFSET -0.070227 0.081735 4.479403
							CHANNELS 3 Xrotation Yrotation Zrotation
							End Site
							{
								OFFSET 0 0 0
							}
						}
					}
				}
			}
		}
	}
	JOINT Spine_virtual
	{
		OFFSET 0.000000 0.000000 0.000000
		CHANNELS 3 Xrotation Yrotation Zrotation
		JOINT Spine
		{
			OFFSET 0.000000 6.876099 0.125700
			CHANNELS 3 Xrotation Yrotation Zrotation
			JOINT Spine1
			{
				OFFSET 0.000000 5.730043 0.104720
				CHANNELS 3 Xrotation Yrotation Zrotation
				JOINT Spine1_split
				{
					OFFSET 0.000000 5.730043 0.104720
					CHANNELS 3 Xrotation Yrotation Zrotation
					JOINT Spine2
					{
						OFFSET 0.000000 5.730043 0.104720
						CHANNELS 3 Xrotation Yrotation Zrotation
						JOINT Neck_virtual
						{
							OFFSET 0.000000 0.000000 0.000000
							CHANNELS 3 Xrotation Yrotation Zrotation
							JOINT Neck
							{
								OFFSET 0.000000 10.314075 0.188496
								CHANNELS 3 Xrotation Yrotation Zrotation
								JOINT Head
								{
									OFFSET 0.000000 7.643700 -2.377400
									CHANNELS 3 Xrotation Yrotation Zrotation
									JOINT HeadTop_End
									{
										OFFSET 0.000000 43.788605 -13.619600
										CHANNELS 3 Xrotation Yrotation Zrotation
										End Site
										{
											OFFSET 0 0 0
										}
									}
								}
							}
						}
						JOINT LeftShoulder_virtual
						{
							OFFSET 0.000000 0.000000 0.000000
							CHANNELS 3 Xrotation Yrotation Zrotation
							JOINT LeftShoulder
							{
								OFFSET 2.196100 4.412489 0.087492
								CHANNELS 3 Xrotation Yrotation Zrotation
								JOINT LeftShoulder_split
								{
									OFFSET 2.196100 4.412489 0.087492
									CHANNELS 3 Xrotation Yrotation Zrotation
									JOINT LeftArm
									{
										OFFSET 8.771219 -2.981674 -0.026999
										CHANNELS 3 Xrotation Yrotation Zrotation
										JOINT LeftForeArm
										{
											OFFSET 8.512804 0.000000 -0.000000
											CHANNELS 3 Xrotation Yrotation Zrotation
											JOINT LeftHand
											{
												OFFSET 18.484802 0.000000 -0.000000
												CHANNELS 3 Xrotation Yrotation Zrotation
												End Site
												{
													OFFSET 0 0 0
												}
											}
										}
									}
								}
							}
						}
						JOINT RightShoulder_virtual
						{
							OFFSET 0.000000 0.000000 0.000000
							CHANNELS 3 Xrotation Yrotation Zrotation
							JOINT RightShoulder
							{
								OFFSET -2.196100 4.412496 0.070690
								CHANNELS 3 Xrotation Yrotation Zrotation
								JOINT RightShoulder_split
								{
									OFFSET -2.196100 4.412496 0.070690
									CHANNELS 3 Xrotation Yrotation Zrotation
									JOINT RightArm
									{
										OFFSET -8.771282 -2.981682 -0.094208
										CHANNELS 3 Xrotation Yrotation Zrotation
										JOINT RightForeArm
										{
											OFFSET -8.494598 0.000000 0.000000
											CHANNELS 3 Xrotation Yrotation Zrotation
											JOINT RightHand
											{
												OFFSET -18.483803 0.000000 0.000001
												CHANNELS 3 Xrotation Yrotation Zrotation
												End Site
												{
													OFFSET 0 0 0
												}
											}
										}
									}
								}
							}
						}
					}
				}
			}
		}
	}
}
MOTION
Frames: 11
Frame Time: 0.03333333
2.553978 23.402754 53.971603 0.000000 0.000000 0.000000 6.029448 -25.440805 -1.520653 45.177463 25.775904 6.172796 5.711980 10.461816 3.487037 -26.186886 4.778034 -51.533296 -22.591052 0.093559 -6.164321 0.000000 0.000000 0.000000 7.772374 -22.620072 -2.544809 -85.846660 -3.544393 -9.947744 46.194793 2.542512 -1.486762 30.818398 6.355786 7.641239 -3.882251 3.561117 2.561749 0.000000 0.000000 0.000000 6.646106 -22.354630 -1.024359 4.458779 -5.993451 2.406439 3.287382 -6.134465 0.552731 1.419198 -5.416090 0.437509 0.000000 0.000000 0.000000 4.223930 -5.879800 0.533098 11.306972 1.121075 11.610637 -0.262108 6.105460 -15.401119 0.000000 0.000000 0.000000 4.790222 -6.718395 -0.106544 -2.277567 -13.480821 -17.757257 -7.020397 5.880223 -0.068037 -39.919512 -13.239603 -23.014693 -15.063583 -67.845772 14.754805 0.000000 0.000000 0.000000 4.195763 -5.861329 1.367380 -0.448073 0.048830 -0.334334 -6.828906 -1.240490 -3.705533 -30.382997 44.052972 10.511749 47.176994 29.329946 -18.668551 0.000000 0.000000 0.000000 
2.541504 23.133450 55.595173 0.000000 0.000000 0.000000 8.454855 -29.016057 -1.962483 49.511584 26.815265 3.026635 -1.799197 12.317829 6.549212 -23.663576 2.734261 -53.345584 -27.405736 -0.113581 -3.194839 0.000000 0.000000 0.000000 10.576981 -26.171661 -2.587215 -84.652702 -4.640030 -4.531068 44.269991 0.742368 -2.917335 27.060614 6.491826 5.879149 -3.589061 2.785644 2.949146 0.000000 0.000000 0.000000 9.034898 -27.035058 -1.688362 4.477257 -9.349830 2.929450 3.590662 -9.687821 1.605466 1.203279 -3.565841 0.226343 0.000000 0.000000 0.000000 4.012658 -9.409346 1.902949 8.580709 4.381384 13.752222 2.808269 13.363000 -19.830430 0.000000 0.000000 0.000000 4.820893 -10.273852 1.264592 -4.289036 -18.961058 -18.938098 -7.185697 6.794239 0.381692 -37.801829 -21.294032 -27.331513 -12.127251 -52.508766 13.642336 0.000000 0.000000 0.000000 4.285110 -9.382324 2.729008 -0.423396 -2.921820 6.676340 -5.935571 -1.853353 -3.827842 -20.147480 33.504096 1.845899 37.784436 22.665824 -7.279622 0.000000 0.000000 0.000000 
2.514951 23.040686 57.527668 0.000000 0.000000 0.000000 11.061062 -32.335447 -2.136248 50.721360 29.526611 2.732910 -3.190363 14.083628 7.033910 -18.315823 -1.453490 -52.891885 -30.056206 -0.910633 0.671410 0.000000 0.000000 0.000000 13.392585 -28.951710 -2.403450 -83.837266 -4.124770 -0.007511 44.316282 -0.117554 -4.000586 22.791578 7.202987 4.744296 -2.909550 2.386454 3.175505 0.000000 0.000000 0.000000 11.182926 -30.910424 -2.221731 4.365313 -11.712243 3.122764 4.142922 -12.296880 2.605167 0.644184 -2.052999 0.252695 0.000000 0.000000 0.000000 4.348464 -11.988491 3.208246 5.409890 7.042338 15.621332 5.400380 19.038760 -23.098665 0.000000 0.000000 0.000000 5.080415 -12.802793 2.608372 -5.613541 -23.017044 -18.411963 -6.782163 6.823026 0.613879 -37.205587 -29.865716 -32.783030 -10.278146 -37.717643 11.047404 0.000000 0.000000 0.000000 4.500200 -12.012556 3.846254 -0.129478 -5.492286 11.177780 -4.632474 -2.037240 -2.885434 -17.065687 24.780695 -0.135126 31.354854 23.019122 -1.728591 0.000000 0.000000 0.000000 
2.446661 23.154289 59.735622 0.000000 0.000000 0.000000 13.536961 -36.085262 -1.766812 47.821699 33.570988 5.832679 2.972732 15.990967 4.742986 -8.755932 -7.874329 -49.557906 -28.082936 -1.533272 4.120380 0.000000 0.000000 0.000000 16.000000 -31.784094 -1.845994 -82.923373 -2.722224 3.604206 45.539750 -0.163332 -4.529315 18.691530 8.484345 4.312266 -2.643600 2.345604 3.060801 0.000000 0.000000 0.000000 12.849698 -34.678312 -2.605666 3.980731 -12.895767 3.008749 4.738113 -13.832361 3.341664 0.149539 -1.200156 0.335941 0.000000 0.000000 0.000000 5.022181 -13.476819 4.162462 2.134329 9.081817 17.182676 6.876055 23.271006 -24.984204 0.000000 0.000000 0.000000 5.370562 -14.214314 3.650045 -6.166612 -25.592509 -16.406703 -5.755778 6.269434 0.314429 -39.520277 -37.422914 -39.833718 -8.986237 -26.445746 7.830136 0.000000 0.000000 0.000000 4.676605 -13.598925 4.521689 0.188170 -7.060073 13.210633 -2.902662 -1.761744 -1.331017 -17.559081 18.464013 0.978792 25.349993 27.960506 0.919896 0.000000 0.000000 0.000000 
2.350169 23.536770 62.032543 0.000000 0.000000 0.000000 15.454051 -40.405446 -0.801501 40.394934 36.986492 12.210656 15.869166 18.085654 0.409851 3.876583 -13.271161 -40.999290 -21.715079 -1.058324 5.485235 0.000000 0.000000 0.000000 17.960283 -35.122103 -0.889305 -81.000846 -1.009032 6.249212 46.704793 0.225794 -4.425014 15.073437 9.744641 4.329217 -2.829885 2.562773 2.674763 0.000000 0.000000 0.000000 14.069107 -38.717436 -2.676947 3.417999 -12.925878 2.631010 5.197924 -14.347017 3.675337 0.145616 -0.823862 0.999468 0.000000 0.000000 0.000000 5.766966 -13.958046 4.617001 -0.911059 10.579937 18.356620 7.083897 26.240653 -25.419833 0.000000 0.000000 0.000000 5.476236 -14.615806 4.154094 -6.060128 -26.696242 -13.607578 -4.175617 5.263321 -0.604589 -44.385154 -42.336716 -47.567459 -8.138478 -19.234916 4.530278 0.000000 0.000000 0.000000 4.717169 -14.166535 4.706252 0.416290 -7.141473 13.164620 -1.096670 -1.908869 0.978943 -19.513736 14.232757 3.423491 18.705566 32.479380 2.572492 0.000000 0.000000 0.000000 
2.136731 24.207378 64.292397 0.000000 0.000000 0.000000 16.615605 -44.423287 0.471455 29.622619 37.400951 20.987921 32.882617 19.012603 -4.375131 15.294395 -14.024495 -28.521497 -13.721030 0.387674 3.889734 0.000000 0.000000 0.000000 18.993928 -39.163997 0.376555 -77.432577 0.752930 7.920713 47.047415 0.732966 -3.856036 11.276144 10.749539 4.609247 -2.714512 2.925126 2.201961 0.000000 0.000000 0.000000 14.699878 -42.879282 -2.409317 2.817011 -12.052203 2.158197 5.409260 -14.053322 3.604821 0.665682 -1.009457 1.533121 0.000000 0.000000 0.000000 6.255592 -13.646735 4.510697 -3.429766 11.604105 19.021208 6.121359 28.010527 -24.491554 0.000000 0.000000 0.000000 5.377359 -14.220465 4.102190 -5.453761 -26.635941 -10.621789 -2.655021 3.713137 -1.563139 -50.058402 -44.135429 -54.244891 -7.718372 -15.434351 1.593673 0.000000 0.000000 0.000000 4.528582 -13.909473 4.452070 0.598407 -5.966809 11.849621 0.775258 -2.548667 3.012158 -21.753304 11.601461 6.125396 11.306164 32.024455 3.941525 0.000000 0.000000 0.000000 
1.803542 25.087412 66.498924 0.000000 0.000000 0.000000 16.979408 -47.945800 1.887213 18.991227 33.716870 28.661714 49.115491 18.001911 -7.143841 20.581715 -10.966219 -17.590763 -8.273412 2.087270 -0.039534 0.000000 0.000000 0.000000 18.985388 -43.364304 1.780541 -72.056529 2.680734 8.327262 46.319717 1.312994 -3.067545 6.643737 11.575366 5.142368 -1.930377 3.250408 1.865050 0.000000 0.000000 0.000000 14.670403 -46.921275 -1.652407 2.342947 -10.702257 1.711719 5.299133 -13.269704 3.185333 1.408779 -1.064197 1.927830 0.000000 0.000000 0.000000 6.279214 -12.849192 3.922411 -5.021038 12.315459 19.035227 4.634542 28.545138 -22.609306 0.000000 0.000000 0.000000 5.149160 -13.371909 3.614245 -4.522268 -25.686279 -7.695130 -1.476619 2.056196 -2.664904 -54.767940 -44.340816 -58.147163 -7.440247 -14.217388 -0.703352 0.000000 0.000000 0.000000 4.121648 -13.124269 3.888243 0.808509 -4.242710 9.909159 2.682213 -3.334095 3.981759 -24.451987 9.928926 8.078889 4.047374 26.397897 4.463768 0.000000 0.000000 0.000000 
1.350344 26.003563 68.639313 0.000000 0.000000 0.000000 16.385439 -50.839045 3.080712 10.053019 27.366574 33.732105 61.611947 15.897144 -7.441369 17.707250 -6.938421 -9.510977 -6.347344 3.638264 -5.087101 0.000000 0.000000 0.000000 17.861513 -47.224799 2.908143 -65.228177 5.047312 7.403931 45.072265 2.076848 -2.461394 0.750320 12.062695 6.578465 -0.899534 3.317242 1.782879 0.000000 0.000000 0.000000 13.995196 -50.281664 -0.406281 2.155620 -9.237648 1.302584 4.961820 -12.237805 2.560364 1.660500 -1.033540 2.031692 0.000000 0.000000 0.000000 5.874110 -11.813275 3.069014 -5.383239 12.744724 18.314097 3.387014 27.934676 -20.225430 0.000000 0.000000 0.000000 4.866643 -12.282437 2.904586 -3.408270 -24.047996 -5.046384 -0.824249 0.033225 -3.097343 -58.324406 -44.649503 -58.954354 -7.127242 -14.921467 -2.236274 0.000000 0.000000 0.000000 3.554905 -12.091822 3.180429 1.047531 -2.979334 7.537357 4.439909 -4.180577 4.049810 -28.752429 9.501941 9.451292 -2.401405 20.215550 3.856816 0.000000 0.000000 0.000000 
0.860074 26.750534 70.691399 0.000000 0.000000 0.000000 15.016398 -52.721329 3.981700 1.965022 20.849868 36.948871 70.007192 13.380096 -5.935863 9.043129 -4.299348 -3.423281 -5.381025 4.779544 -9.571433 0.000000 0.000000 0.000000 15.663041 -49.810620 3.414064 -57.384545 7.881698 4.898025 44.072134 3.108658 -2.460435 -6.623812 11.927343 9.246534 -0.504318 2.916741 1.902803 0.000000 0.000000 0.000000 12.606791 -52.770185 1.058678 2.225761 -8.001260 0.997603 4.425403 -11.190194 1.865856 1.463137 -0.993258 1.470112 0.000000 0.000000 0.000000 5.184778 -10.721864 2.117307 -4.254770 12.880221 16.766246 3.027364 26.327022 -17.834613 0.000000 0.000000 0.000000 4.614723 -11.137821 2.189842 -2.178917 -21.688660 -2.422746 -0.320200 -2.030224 -2.870777 -61.423693 -46.255960 -57.237013 -6.867861 -17.456514 -3.204999 0.000000 0.000000 0.000000 2.952970 -11.042148 2.433746 1.234327 -3.208109 4.688759 5.443224 -4.676213 3.409881 -36.065643 10.432697 10.695905 -8.061660 18.976105 3.518719 0.000000 0.000000 0.000000 
0.367775 27.151901 72.773666 0.000000 0.000000 0.000000 12.914020 -53.644733 4.473754 -7.249381 15.235002 40.419034 74.955309 9.880713 -3.834355 0.455455 -3.933893 -0.467946 -2.373460 5.122009 -12.380429 0.000000 0.000000 0.000000 12.542276 -50.630188 3.226685 -48.998199 10.888733 0.650583 44.476498 4.495831 -3.072580 -14.689946 10.853186 12.858410 -1.306348 1.902747 2.258375 0.000000 0.000000 0.000000 10.658768 -54.196137 2.455621 2.457492 -7.044240 0.736270 3.872742 -10.218677 1.229798 1.064605 -0.547122 1.032913 0.000000 0.000000 0.000000 4.430221 -9.658324 1.259816 -1.608523 12.704418 14.400040 3.897052 23.959766 -15.689646 0.000000 0.000000 0.000000 4.441239 -10.034344 1.627588 -0.956726 -18.393425 0.357312 0.242990 -3.683957 -2.026941 -64.547268 -49.596531 -53.490828 -6.711010 -22.683350 -4.044125 0.000000 0.000000 0.000000 2.462145 -10.055618 1.727117 1.182196 -5.080297 1.102841 5.779642 -4.868846 2.719840 -47.490339 12.617185 12.670752 -13.419675 25.739652 5.238353 0.000000 0.000000 0.000000 
-0.050142 27.189962 74.819878 0.000000 0.000000 0.000000 10.010533 -53.287934 4.316154 -18.436069 10.386009 45.308418 75.916692 5.162546 -2.083387 -4.471876 -4.773851 -1.557226 2.131788 4.773813 -12.871854 0.000000 0.000000 0.000000 8.887825 -49.978284 2.580886 -40.569305 13.479988 -5.305233 46.691839 6.098265 -3.897224 -22.654115 8.717581 16.475019 -2.688771 0.241672 2.806118 0.000000 0.000000 0.000000 8.435849 -54.619513 3.494002 2.568199 -6.308015 0.556029 3.445319 -9.320683 0.745054 0.662607 -0.448737 0.312718 0.000000 0.000000 0.000000 3.757194 -8.677812 0.606868 2.275594 12.055455 11.358175 5.844131 21.179279 -13.911188 0.000000 0.000000 0.000000 4.329728 -8.964126 1.254982 0.196411 -14.089998 3.520646 1.104683 -4.715201 -0.815146 -67.561964 -53.930819 -47.867134 -6.985372 -31.021777 -5.316449 0.000000 0.000000 0.000000 2.223172 -9.153985 1.135819 0.633404 -8.312553 -3.398771 5.992813 -4.700975 2.145542 -62.893803 15.593578 16.231502 -20.104295 39.945019 11.279522 0.000000 0.000000 0.000000 
